<svg xmlns="http://www.w3.org/2000/svg" class="plt-container" width="900.0" height="550.0">
  <style type="text/css">
  .plt-container {
	font-family: "Lucida Grande", sans-serif;
	cursor: crosshair;
	user-select: none;
	-webkit-user-select: none;
	-moz-user-select: none;
	-ms-user-select: none;
}
.plt-backdrop {
   fill: white;
}
.plt-transparent .plt-backdrop {
   visibility: hidden;
}
text {
	font-size: 12px;
	fill: #3d3d3d;
}
.plt-data-tooltip text {
	font-size: 12px;
}
.plt-axis-tooltip text {
	font-size: 10px;
}
.plt-axis line {
	shape-rendering: crispedges;
}
.plt-plot-title {

  font-size: 16.0px;
  font-weight: bold;
}
.plt-axis .tick text {

  font-size: 10.0px;
}
.plt-axis.small-tick-font .tick text {

  font-size: 8.0px;
}
.plt-axis-title text {

  font-size: 12.0px;
}
.plt_legend .legend-title text {

  font-size: 12.0px;
  font-weight: bold;
}
.plt_legend text {

  font-size: 10.0px;
}

  </style>
  <rect class="plt-backdrop" width="100%" height="100%">
  </rect>
  <g class="plt-plot">
    <g transform="translate(20.0 10.0 ) ">
      <g transform="translate(35.8 501.0 ) " class="plt-axis">
        <g class="tick" transform="translate(34.89772727272727 0.0 ) ">
          <line stroke-width="1.0" stroke="rgb(0,0,0)" stroke-opacity="1.0" x2="0.0" y2="6.0">
          </line>
          <g transform="translate(0.0 9.0 ) ">
            <text style="fill:#000000;" text-anchor="middle" dy="0.7em">
            0.0
            </text>
          </g>
        </g>
        <g class="tick" transform="translate(92.230845188881 0.0 ) ">
          <line stroke-width="1.0" stroke="rgb(0,0,0)" stroke-opacity="1.0" x2="0.0" y2="6.0">
          </line>
          <g transform="translate(0.0 9.0 ) ">
            <text style="fill:#000000;" text-anchor="middle" dy="0.7em">
            0.5
            </text>
          </g>
        </g>
        <g class="tick" transform="translate(149.56396310503473 0.0 ) ">
          <line stroke-width="1.0" stroke="rgb(0,0,0)" stroke-opacity="1.0" x2="0.0" y2="6.0">
          </line>
          <g transform="translate(0.0 9.0 ) ">
            <text style="fill:#000000;" text-anchor="middle" dy="0.7em">
            1.0
            </text>
          </g>
        </g>
        <g class="tick" transform="translate(206.89708102118848 0.0 ) ">
          <line stroke-width="1.0" stroke="rgb(0,0,0)" stroke-opacity="1.0" x2="0.0" y2="6.0">
          </line>
          <g transform="translate(0.0 9.0 ) ">
            <text style="fill:#000000;" text-anchor="middle" dy="0.7em">
            1.5
            </text>
          </g>
        </g>
        <g class="tick" transform="translate(264.2301989373422 0.0 ) ">
          <line stroke-width="1.0" stroke="rgb(0,0,0)" stroke-opacity="1.0" x2="0.0" y2="6.0">
          </line>
          <g transform="translate(0.0 9.0 ) ">
            <text style="fill:#000000;" text-anchor="middle" dy="0.7em">
            2.0
            </text>
          </g>
        </g>
        <g class="tick" transform="translate(321.5633168534959 0.0 ) ">
          <line stroke-width="1.0" stroke="rgb(0,0,0)" stroke-opacity="1.0" x2="0.0" y2="6.0">
          </line>
          <g transform="translate(0.0 9.0 ) ">
            <text style="fill:#000000;" text-anchor="middle" dy="0.7em">
            2.5
            </text>
          </g>
        </g>
        <g class="tick" transform="translate(378.89643476964966 0.0 ) ">
          <line stroke-width="1.0" stroke="rgb(0,0,0)" stroke-opacity="1.0" x2="0.0" y2="6.0">
          </line>
          <g transform="translate(0.0 9.0 ) ">
            <text style="fill:#000000;" text-anchor="middle" dy="0.7em">
            3.0
            </text>
          </g>
        </g>
        <g class="tick" transform="translate(436.22955268580336 0.0 ) ">
          <line stroke-width="1.0" stroke="rgb(0,0,0)" stroke-opacity="1.0" x2="0.0" y2="6.0">
          </line>
          <g transform="translate(0.0 9.0 ) ">
            <text style="fill:#000000;" text-anchor="middle" dy="0.7em">
            3.5
            </text>
          </g>
        </g>
        <g class="tick" transform="translate(493.5626706019571 0.0 ) ">
          <line stroke-width="1.0" stroke="rgb(0,0,0)" stroke-opacity="1.0" x2="0.0" y2="6.0">
          </line>
          <g transform="translate(0.0 9.0 ) ">
            <text style="fill:#000000;" text-anchor="middle" dy="0.7em">
            4.0
            </text>
          </g>
        </g>
        <g class="tick" transform="translate(550.8957885181109 0.0 ) ">
          <line stroke-width="1.0" stroke="rgb(0,0,0)" stroke-opacity="1.0" x2="0.0" y2="6.0">
          </line>
          <g transform="translate(0.0 9.0 ) ">
            <text style="fill:#000000;" text-anchor="middle" dy="0.7em">
            4.5
            </text>
          </g>
        </g>
        <g class="tick" transform="translate(608.2289064342646 0.0 ) ">
          <line stroke-width="1.0" stroke="rgb(0,0,0)" stroke-opacity="1.0" x2="0.0" y2="6.0">
          </line>
          <g transform="translate(0.0 9.0 ) ">
            <text style="fill:#000000;" text-anchor="middle" dy="0.7em">
            5.0
            </text>
          </g>
        </g>
        <g class="tick" transform="translate(665.5620243504183 0.0 ) ">
          <line stroke-width="1.0" stroke="rgb(0,0,0)" stroke-opacity="1.0" x2="0.0" y2="6.0">
          </line>
          <g transform="translate(0.0 9.0 ) ">
            <text style="fill:#000000;" text-anchor="middle" dy="0.7em">
            5.5
            </text>
          </g>
        </g>
        <g class="tick" transform="translate(722.8951422665721 0.0 ) ">
          <line stroke-width="1.0" stroke="rgb(0,0,0)" stroke-opacity="1.0" x2="0.0" y2="6.0">
          </line>
          <g transform="translate(0.0 9.0 ) ">
            <text style="fill:#000000;" text-anchor="middle" dy="0.7em">
            6.0
            </text>
          </g>
        </g>
        <line x1="0.0" y1="0.0" x2="767.75" y2="0.0" stroke-width="1.0" stroke="rgb(0,0,0)" stroke-opacity="1.0">
        </line>
      </g>
      <g transform="translate(35.8 0.0 ) " class="plt-axis">
        <g class="tick" transform="translate(0.0 501.0 ) ">
          <line stroke-width="1.0" stroke="rgb(0,0,0)" stroke-opacity="1.0" x2="-6.0" y2="0.0">
          </line>
          <g transform="translate(-9.0 0.0 ) ">
            <text style="fill:#000000;" text-anchor="end" dy="0.35em">
            0.00
            </text>
          </g>
        </g>
        <g class="tick" transform="translate(0.0 470.21334207772355 ) ">
          <line stroke-width="1.0" stroke="rgb(0,0,0)" stroke-opacity="1.0" x2="-6.0" y2="0.0">
          </line>
          <g transform="translate(-9.0 0.0 ) ">
            <text style="fill:#000000;" text-anchor="end" dy="0.35em">
            0.01
            </text>
          </g>
        </g>
        <g class="tick" transform="translate(0.0 439.42668415544716 ) ">
          <line stroke-width="1.0" stroke="rgb(0,0,0)" stroke-opacity="1.0" x2="-6.0" y2="0.0">
          </line>
          <g transform="translate(-9.0 0.0 ) ">
            <text style="fill:#000000;" text-anchor="end" dy="0.35em">
            0.02
            </text>
          </g>
        </g>
        <g class="tick" transform="translate(0.0 408.6400262331707 ) ">
          <line stroke-width="1.0" stroke="rgb(0,0,0)" stroke-opacity="1.0" x2="-6.0" y2="0.0">
          </line>
          <g transform="translate(-9.0 0.0 ) ">
            <text style="fill:#000000;" text-anchor="end" dy="0.35em">
            0.03
            </text>
          </g>
        </g>
        <g class="tick" transform="translate(0.0 377.8533683108943 ) ">
          <line stroke-width="1.0" stroke="rgb(0,0,0)" stroke-opacity="1.0" x2="-6.0" y2="0.0">
          </line>
          <g transform="translate(-9.0 0.0 ) ">
            <text style="fill:#000000;" text-anchor="end" dy="0.35em">
            0.04
            </text>
          </g>
        </g>
        <g class="tick" transform="translate(0.0 347.0667103886179 ) ">
          <line stroke-width="1.0" stroke="rgb(0,0,0)" stroke-opacity="1.0" x2="-6.0" y2="0.0">
          </line>
          <g transform="translate(-9.0 0.0 ) ">
            <text style="fill:#000000;" text-anchor="end" dy="0.35em">
            0.05
            </text>
          </g>
        </g>
        <g class="tick" transform="translate(0.0 316.28005246634143 ) ">
          <line stroke-width="1.0" stroke="rgb(0,0,0)" stroke-opacity="1.0" x2="-6.0" y2="0.0">
          </line>
          <g transform="translate(-9.0 0.0 ) ">
            <text style="fill:#000000;" text-anchor="end" dy="0.35em">
            0.06
            </text>
          </g>
        </g>
        <g class="tick" transform="translate(0.0 285.49339454406504 ) ">
          <line stroke-width="1.0" stroke="rgb(0,0,0)" stroke-opacity="1.0" x2="-6.0" y2="0.0">
          </line>
          <g transform="translate(-9.0 0.0 ) ">
            <text style="fill:#000000;" text-anchor="end" dy="0.35em">
            0.07
            </text>
          </g>
        </g>
        <g class="tick" transform="translate(0.0 254.70673662178862 ) ">
          <line stroke-width="1.0" stroke="rgb(0,0,0)" stroke-opacity="1.0" x2="-6.0" y2="0.0">
          </line>
          <g transform="translate(-9.0 0.0 ) ">
            <text style="fill:#000000;" text-anchor="end" dy="0.35em">
            0.08
            </text>
          </g>
        </g>
        <g class="tick" transform="translate(0.0 223.9200786995122 ) ">
          <line stroke-width="1.0" stroke="rgb(0,0,0)" stroke-opacity="1.0" x2="-6.0" y2="0.0">
          </line>
          <g transform="translate(-9.0 0.0 ) ">
            <text style="fill:#000000;" text-anchor="end" dy="0.35em">
            0.09
            </text>
          </g>
        </g>
        <g class="tick" transform="translate(0.0 193.1334207772358 ) ">
          <line stroke-width="1.0" stroke="rgb(0,0,0)" stroke-opacity="1.0" x2="-6.0" y2="0.0">
          </line>
          <g transform="translate(-9.0 0.0 ) ">
            <text style="fill:#000000;" text-anchor="end" dy="0.35em">
            0.10
            </text>
          </g>
        </g>
        <g class="tick" transform="translate(0.0 162.34676285495942 ) ">
          <line stroke-width="1.0" stroke="rgb(0,0,0)" stroke-opacity="1.0" x2="-6.0" y2="0.0">
          </line>
          <g transform="translate(-9.0 0.0 ) ">
            <text style="fill:#000000;" text-anchor="end" dy="0.35em">
            0.11
            </text>
          </g>
        </g>
        <g class="tick" transform="translate(0.0 131.56010493268298 ) ">
          <line stroke-width="1.0" stroke="rgb(0,0,0)" stroke-opacity="1.0" x2="-6.0" y2="0.0">
          </line>
          <g transform="translate(-9.0 0.0 ) ">
            <text style="fill:#000000;" text-anchor="end" dy="0.35em">
            0.12
            </text>
          </g>
        </g>
        <g class="tick" transform="translate(0.0 100.77344701040658 ) ">
          <line stroke-width="1.0" stroke="rgb(0,0,0)" stroke-opacity="1.0" x2="-6.0" y2="0.0">
          </line>
          <g transform="translate(-9.0 0.0 ) ">
            <text style="fill:#000000;" text-anchor="end" dy="0.35em">
            0.13
            </text>
          </g>
        </g>
        <g class="tick" transform="translate(0.0 69.98678908813014 ) ">
          <line stroke-width="1.0" stroke="rgb(0,0,0)" stroke-opacity="1.0" x2="-6.0" y2="0.0">
          </line>
          <g transform="translate(-9.0 0.0 ) ">
            <text style="fill:#000000;" text-anchor="end" dy="0.35em">
            0.14
            </text>
          </g>
        </g>
        <g class="tick" transform="translate(0.0 39.20013116585369 ) ">
          <line stroke-width="1.0" stroke="rgb(0,0,0)" stroke-opacity="1.0" x2="-6.0" y2="0.0">
          </line>
          <g transform="translate(-9.0 0.0 ) ">
            <text style="fill:#000000;" text-anchor="end" dy="0.35em">
            0.15
            </text>
          </g>
        </g>
        <g class="tick" transform="translate(0.0 8.413473243577243 ) ">
          <line stroke-width="1.0" stroke="rgb(0,0,0)" stroke-opacity="1.0" x2="-6.0" y2="0.0">
          </line>
          <g transform="translate(-9.0 0.0 ) ">
            <text style="fill:#000000;" text-anchor="end" dy="0.35em">
            0.16
            </text>
          </g>
        </g>
        <line x1="0.0" y1="0.0" x2="0.0" y2="501.0" stroke-width="1.0" stroke="rgb(0,0,0)" stroke-opacity="1.0">
        </line>
      </g>
      <g transform="translate(35.8 0.0 ) " clip-path="url(#DVHpl2)" clip-bounds-jfx="[rect (0.0, 0.0), (767.75, 501.0)]">
        <defs>
          <clipPath id="DVHpl2">
            <rect x="0.0" y="0.0" width="767.75" height="501.0">
            </rect>
          </clipPath>
        </defs>
        <g>
          <path d="M34.89772727272727 232.48400090494658 L34.89772727272727 232.48400090494658 L36.263587439957305 229.6462954193915 L37.62944760718733 226.8142025131183 L38.99530777441736 223.9883165141357 L40.361167941647395 221.1692277917656 L41.72702810887743 218.35752238681204 L43.09288827610745 215.55378164632646 L44.458748443337484 212.75858186334278 L45.824608610567516 209.9724939219592 L47.19046877779755 207.1960829481265 L48.55632894502757 204.42990796650196 L49.922189112257605 201.67452156371127 L51.28804927948763 198.93046955835837 L52.65390944671766 196.19829067811037 L54.019769613947695 193.47851624417206 L55.38562978117773 190.7716698634586 L56.75148994840775 188.07826712875834 L58.117350115637784 185.39881532717334 L59.483210282867816 182.73381315710338 L60.84907045009784 180.08375045403722 L62.21493061732788 177.449107925394 L63.580790784557905 174.83035689465123 L64.94665095178794 172.22795905497554 L66.31251111901797 169.6423662325684 L67.678371286248 167.07402015991426 L69.04423145347802 164.52335225911423 L70.41009162070804 161.9907834354679 L71.77595178793808 159.4767238814568 L73.14181195516812 156.9815728912622 L74.50767212239813 154.50571868594398 L75.87353228962817 152.0495382493835 L77.23939245685821 149.61339717508616 L78.60525262408824 147.1976495239224 L79.97111279131826 144.80263769286762 L81.3369729585483 142.42869229479277 L82.70283312577833 140.07613204934103 L84.06869329300835 137.74526368490655 L85.43455346023839 135.43638185172546 L86.80041362746842 133.14976904606777 L88.16627379469844 130.88569554550622 L89.53213396192848 128.6444193552319 L90.8979941291585 126.42618616535657 L92.26385429638853 124.23122931914554 L93.62971446361857 122.05976979210101 L94.99557463084861 119.912016181804 L96.36143479807862 117.7881647084132 L97.72729496530866 115.68839922570675 L99.0931551325387 113.61289124253375 L100.45901529976871 111.56179995454266 L101.82487546699875 109.53527228602854 L103.19073563422876 107.5334429417411 L104.5565958014588 105.55643446847876 L105.92245596868884 103.60435732628406 L107.28831613591888 101.67730996904726 L108.65417630314889 99.77537893431725 L110.02003647037893 97.89863894210094 L111.38589663760897 96.04715300243629 L112.75175680483898 94.22097253150639 L114.11761697206902 92.42013747605574 L115.48347713929905 90.64467644586722 L116.84933730652907 88.89460685404453 L118.2151974737591 87.16993506484272 L119.58105764098914 85.47065654878571 L120.94691780821918 83.79675604479479 L122.3127779754492 82.14820772905824 L123.67863814267923 80.52497539036159 L125.04449830990924 78.92701261159243 L126.41035847713928 77.35426295713626 L127.77621864436932 75.80666016587179 L129.14207881159933 74.28412834947045 L130.50793897882937 72.78658219571065 L131.8737991460594 71.31392717650357 L133.23965931328945 69.86605976033923 L134.60551948051946 68.44286762884786 L135.9713796477495 67.04422989718364 L137.3372398149795 65.67001733792733 L138.70309998220955 64.32009260821212 L140.0689601494396 62.994310479777084 L141.43482031666963 61.692518071647555 L142.80068048389964 60.4145550851548 L144.16654065112968 59.16025404099952 L145.53240081835972 57.929440518071374 L146.89826098558973 56.72193339373894 L148.26412115281977 55.53754508532927 L149.6299813200498 54.376081792515436 L150.99584148727982 53.23734374033995 L152.36170165450986 52.12112542260411 L153.7275618217399 51.02721584535641 L155.09342198896994 49.955398770220995 L156.45928215619995 48.90545295731272 L157.82514232343 47.877152407485994 L159.19100249066 46.87026660367826 L160.55686265789004 45.884560751107074 L161.92272282512005 44.9197960160937 L163.28858299235011 43.97572976328587 L164.65444315958013 43.052115791063045 L166.02030332681014 42.14870456491644 L167.38616349404018 41.26524344859331 L168.75202366127021 40.401476932818696 L170.11788382850025 39.55714686139652 L171.48374399573026 38.73199265451643 L172.8496041629603 37.92575152908569 L174.21546433019034 37.13815871592698 L175.58132449742038 36.368947673677326 L176.9471846646504 35.61785029924101 L178.31304483188043 34.884597134655166 L179.67890499911047 34.16891757022984 L181.0447651663405 33.47054004383642 L182.41062533357052 32.78919223622876 L183.77648550080056 32.12460126228149 L185.1423456680306 31.476493858044137 L186.50820583526064 30.844596563517825 L187.87406600249065 30.228635901062773 L189.23992616972066 29.628338549359967 L190.6057863369507 29.043431512853488 L191.9716465041807 28.473642286608026 L193.33750667141075 27.918699016527796 L194.7033668386408 27.378330654881836 L196.06922700587083 26.852267111096978 L197.43508717310084 26.340239397781772 L198.80094734033088 25.841979771952026 L200.16680750756092 25.357221871438696 L201.53266767479096 24.885700846459486 L202.89852784202097 24.427153486349653 L204.264388009251 23.98131834144567 L205.63024817648105 23.54793584013032 L206.9961083437111 23.126748401046598 L208.3619685109411 22.71750054049494 L209.72782867817114 22.31993897504202 L211.09368884540115 21.93381271935823 L212.4595490126312 21.55887317932644 L213.8254091798612 21.194874240450872 L215.19126934709124 20.84157235161456 L216.55712951432128 20.498726604230512 L217.9229896815513 20.166098806833872 L219.28884984878133 19.843453555180133 L220.65471001601136 19.530558297899745 L222.0205701832414 19.227183397775434 L223.38643035047141 18.933102188716077 L224.75229051770145 18.64809102848693 L226.1181506849315 18.371929347278353 L227.48401085216153 18.10439969218578 L228.84987101939154 17.84528776768383 L230.21573118662158 17.594382472173606 L231.58159135385162 17.35147593069047 L232.94745152108163 17.11636352385574 L234.31331168831167 16.88884391316907 L235.67917185554168 16.6687190627203 L237.04503202277172 16.455794257424998 L238.41089219000173 16.24987811786923 L239.77675235723177 16.050782611863156 L241.1426125244618 15.85832306279758 L242.50847269169185 15.672318154901234 L243.87433285892186 15.492589935494834 L245.2401930261519 15.318963814345636 L246.60605319338194 15.151268560211122 L247.97191336061198 14.989336294681948 L249.337773527842 14.833002483416351 L250.70363369507203 14.68210592486514 L252.06949386230207 14.536488736590286 L253.4353540295321 14.395996339269004 L254.80121419676212 14.260477438490398 L256.1670743639921 14.129784004429155 L257.53293453122217 14.003771249506713 L258.8987946984522 13.882297604126393 L260.2646548656822 13.765224690579657 L261.63051503291223 13.652417295218186 L262.99637520014227 13.543743338985223 L264.3622353673723 13.439073846392944 L265.72809553460235 13.338282913043258 L267.09395570183233 13.241247671772157 L268.45981586906237 13.147848257513203 L269.8256760362924 13.057967770958385 L271.19153620352245 12.971492241106091 L272.5573963707525 12.888310586774196 L273.9232565379825 12.808314577161639 L275.28911670521256 12.73139879153581 L276.65497687244255 12.65746057812271 L278.0208370396726 12.58640001227701 L279.3866972069026 12.518119854000872 L280.75255737413266 12.452525504888115 L282.1184175413627 12.38952496455687 L283.48427770859274 12.329028786646063 L284.8501378758228 12.270950034430882 L286.2159980430528 12.21520423613157 L287.5818582102828 12.161709339965569 L288.94771837751284 12.110385669012487 L290.3135785447429 12.061155875941552 L291.6794387119729 12.013944897661702 L293.04529887920296 11.968679909943091 L294.41115904643294 11.925290282065362 L295.777019213663 11.883707531539528 L297.14287938089296 11.843865278950034 L298.508739548123 11.805699202967276 L299.87459971535304 11.76914699556147 L301.2404598825831 11.734148317478912 L302.6063200498131 11.700644753999995 L303.97218021704316 11.668579771028817 L305.3380403842732 11.637898671547191 L306.70390055150324 11.60854855246805 L308.0697607187332 11.580478261915232 L309.43562088596326 11.553638356968179 L310.8014810531933 11.52798106189681 L312.16734122042334 11.503460226907805 L313.5332013876534 11.480031287442785 L314.8990615548834 11.457651224033782 L316.26492172211346 11.436278522756652 L317.6307818893435 11.415873136287416 L318.9966420565735 11.39639644559577 L320.3625022238035 11.377811222280968 L321.72836239103356 11.360081591578194 L323.0942225582636 11.343172996042199 L324.46008272549363 11.327052159927575 L325.8259428927237 11.311687054281379 L327.1918030599537 11.29704686274954 L328.5576632271837 11.283101948123203 L329.92352339441373 11.269823819619944 L331.2893835616438 11.257185100921447 L332.6552437288738 11.2451594989667 L334.02110389610385 11.233721773513082 L335.3869640633339 11.222847707467906 L336.75282423056393 11.212514078000368 L338.11868439779397 11.202698628434064 L339.48454456502395 11.193380040927025 L340.850404732254 11.184537909940559 L342.216264899484 11.176152716502202 L343.582125066714 11.168205803261799 L344.94798523394405 11.160679350345163 L346.3138454011741 11.153556352003704 L347.67970556840413 11.146820594063797 L349.0455657356341 11.140456632171151 L350.41142590286415 11.134449770837477 L351.7772860700942 11.1287860432804 L353.14314623732423 11.123452192062928 L354.50900640455427 11.118435650526294 L355.8748665717843 11.113724525018654 L357.24072673901435 11.109307577915445 L358.6065869062444 11.105174211430779 L359.97244707347437 11.101314452217537 L361.3383072407044 11.097718936756792 L362.70416740793445 11.094378897528088 L364.0700275751645 11.091286149967402 L365.4358877423945 11.088433080202662 L366.80174790962457 11.085812633570413 L368.1676080768546 11.083418303906399 L369.5334682440846 11.081244123614226 L370.8993284113146 11.07928465450317 L372.26518857854467 11.077534979400411 L373.6310487457747 11.075990694528343 L374.99690891300475 11.074647902652941 L376.3627690802348 11.073503206993848 L377.7286292474648 11.072553705902465 L379.09448941469486 11.071796988300889 L380.46034958192485 11.071231129882221 L381.8262097491549 11.070854690074157 L383.1920699163849 11.070666709759394 L384.55793008361496 11.07066670975945 L385.923790250845 11.070854690074157 L387.289650418075 11.071231129882449 L388.655510585305 11.07179698830123 L390.02137075253506 11.072553705902465 L391.38723091976505 11.073503206993621 L392.7530910869951 11.074647902652828 L394.1189512542251 11.075990694528514 L395.48481142145516 11.077534979400298 L396.8506715886852 11.07928465450317 L398.21653175591524 11.081244123614056 L399.5823919231453 11.083418303906399 L400.94825209037526 11.085812633570413 L402.3141122576053 11.088433080202833 L403.67997242483534 11.091286149967402 L405.0458325920654 11.094378897528088 L406.4116927592954 11.097718936756621 L407.77755292652546 11.101314452217537 L409.1434130937555 11.105174211430608 L410.5092732609855 11.109307577915274 L411.8751334282155 11.113724525018824 L413.24099359544556 11.118435650526237 L414.6068537626756 11.123452192062757 L415.97271392990564 11.12878604328057 L417.3385740971357 11.134449770837534 L418.7044342643657 11.140456632171038 L420.07029443159576 11.146820594063627 L421.43615459882574 11.153556352003818 L422.8020147660558 11.160679350344992 L424.1678749332858 11.168205803261628 L425.53373510051586 11.176152716502202 L426.8995952677459 11.184537909940559 L428.26545543497593 11.193380040926911 L429.631315602206 11.202698628434291 L430.99717576943596 11.212514078000197 L432.363035936666 11.222847707467906 L433.72889610389603 11.233721773513082 L435.0947562711261 11.245159498967041 L436.46061643835606 11.257185100921447 L437.8264766055861 11.269823819620115 L439.19233677281613 11.28310194812326 L440.5581969400462 11.29704686274954 L441.92405710727616 11.311687054281265 L443.2899172745062 11.327052159927746 L444.65577744173623 11.343172996042028 L446.0216376089663 11.360081591578364 L447.3874977761963 11.377811222280968 L448.75335794342635 11.396396445595656 L450.1192181106564 11.415873136287416 L451.4850782778864 11.436278522756538 L452.8509384451164 11.457651224034066 L454.21679861234645 11.480031287442898 L455.5826587795765 11.503460226907919 L456.94851894680653 11.527981061896526 L458.31437911403657 11.55363835696852 L459.6802392812666 11.580478261915061 L461.04609944849665 11.60854855246788 L462.41195961572663 11.637898671547191 L463.77781978295667 11.668579771028703 L465.1436799501867 11.700644753999995 L466.50954011741675 11.734148317479253 L467.8754002846468 11.769146995561641 L469.2412604518768 11.805699202966935 L470.60712061910687 11.843865278950318 L471.9729807863369 11.883707531539415 L473.3388409535669 11.925290282065419 L474.7047011207969 11.968679909943262 L476.07056128802697 12.013944897661986 L477.436421455257 12.061155875941836 L478.80228162248704 12.110385669012487 L480.1681417897171 12.161709339965569 L481.53400195694707 12.215204236131513 L482.8998621241771 12.270950034430939 L484.2657222914071 12.329028786645779 L485.6315824586371 12.38952496455687 L486.99744262586717 12.452525504888115 L488.3633027930972 12.518119854000929 L489.72916296032724 12.586400012276897 L491.0950231275573 12.657460578122652 L492.4608832947873 12.73139879153564 L493.82674346201736 12.808314577161696 L495.19260362924734 12.88831058677431 L496.55846379647744 12.971492241106091 L497.9243239637074 13.057967770958442 L499.2901841309374 13.14784825751309 L500.6560442981675 13.241247671772214 L502.0219044653975 13.338282913043258 L503.3877646326276 13.439073846392944 L504.75362479985756 13.543743338985223 L506.11948496708766 13.652417295218129 L507.48534513431764 13.76522469057943 L508.8512053015476 13.882297604126279 L510.2170654687777 14.00377124950677 L511.5829256360077 14.129784004429041 L512.9487858032378 14.260477438490398 L514.3146459704678 14.395996339269175 L515.6805061376979 14.536488736590115 L517.0463663049279 14.68210592486514 L518.4122264721578 14.833002483416351 L519.778086639388 14.989336294682005 L521.1439468066179 15.151268560211179 L522.5098069738481 15.31896381434558 L523.875667141078 15.492589935495118 L525.2415273083082 15.672318154901063 L526.6073874755381 15.85832306279758 L527.9732476427681 16.050782611863212 L529.3391078099982 16.249878117869287 L530.7049679772282 16.455794257425055 L532.0708281444582 16.668719062720413 L533.4366883116882 16.888843913169012 L534.8025484789183 17.11636352385574 L536.1684086461482 17.3514759306903 L537.5342688133784 17.594382472173834 L538.9001289806083 17.845287767683885 L540.2659891478384 18.104399692185666 L541.6318493150684 18.37192934727824 L542.9977094822984 18.648091028487045 L544.3635696495285 18.933102188716077 L545.7294298167585 19.227183397775377 L547.0952899839886 19.53055829789946 L548.4611501512186 19.843453555180133 L549.8270103184485 20.166098806833872 L551.1928704856787 20.498726604230455 L552.5587306529086 20.841572351614616 L553.9245908201386 21.194874240450872 L555.2904509873687 21.55887317932644 L556.6563111545987 21.9338127193584 L558.0221713218288 22.31993897504185 L559.3880314890587 22.71750054049477 L560.7538916562888 23.12674840104654 L562.1197518235188 23.54793584013055 L563.4856119907489 23.981318341445785 L564.8514721579788 24.427153486349653 L566.217332325209 24.885700846459656 L567.5831924924389 25.357221871438526 L568.9490526596691 25.841979771951856 L570.314912826899 26.340239397781602 L571.680772994129 26.852267111096978 L573.0466331613591 27.378330654881836 L574.4124933285891 27.918699016527796 L575.7783534958191 28.473642286607856 L577.1442136630492 29.04343151285343 L578.5100738302792 29.628338549360024 L579.8759339975093 30.228635901062773 L581.2417941647392 30.84459656351771 L582.6076543319693 31.476493858044023 L583.9735144991993 32.124601262281374 L585.3393746664294 32.78919223622876 L586.7052348336593 33.47054004383642 L588.0710950008895 34.16891757022984 L589.4369551681194 34.884597134655166 L590.8028153353495 35.61785029924073 L592.1686755025795 36.3689476736771 L593.5345356698095 37.13815871592698 L594.9003958370396 37.92575152908569 L596.2662560042696 38.731992654516375 L597.6321161714997 39.55714686139652 L598.9979763387297 40.401476932818525 L600.3638365059597 41.26524344859348 L601.7296966731897 42.14870456491644 L603.0955568404197 43.052115791063045 L604.4614170076497 43.9757297632857 L605.8272771748798 44.91979601609353 L607.1931373421098 45.884560751107074 L608.5589975093399 46.87026660367815 L609.9248576765699 47.877152407485994 L611.2907178437999 48.905452957312605 L612.6565780110299 49.95539877022088 L614.02243817826 51.02721584535624 L615.3882983454899 52.121125422603996 L616.7541585127201 53.237343740339895 L618.12001867995 54.376081792515265 L619.4858788471802 55.53754508532916 L620.8517390144101 56.721933393738766 L622.2175991816401 57.92944051807115 L623.5834593488702 59.16025404099963 L624.9493195161002 60.414555085154745 L626.3151796833303 61.6925180716475 L627.6810398505603 62.99431047977697 L629.0469000177903 64.32009260821212 L630.4127601850204 65.67001733792722 L631.7786203522503 67.0442298971837 L633.1444805194805 68.44286762884792 L634.5103406867104 69.86605976033906 L635.8762008539405 71.31392717650357 L637.2420610211705 72.78658219571048 L638.6079211884006 74.28412834947045 L639.9737813556305 75.80666016587168 L641.3396415228607 77.35426295713643 L642.7055016900906 78.92701261159237 L644.0713618573207 80.52497539036159 L645.4372220245507 82.14820772905824 L646.8030821917807 83.7967560447945 L648.1689423590108 85.47065654878566 L649.5348025262407 87.1699350648426 L650.9006626934708 88.89460685404447 L652.2665228607008 90.64467644586722 L653.6323830279308 92.42013747605574 L654.9982431951609 94.22097253150633 L656.3641033623909 96.04715300243612 L657.7299635296209 97.89863894210077 L659.095823696851 99.77537893431719 L660.461683864081 101.67730996904726 L661.827544031311 103.60435732628389 L663.193404198541 105.55643446847859 L664.5592643657711 107.53344294174104 L665.925124533001 109.53527228602837 L667.2909847002312 111.56179995454255 L668.6568448674611 113.61289124253358 L670.0227050346913 115.68839922570658 L671.3885652019212 117.78816470841315 L672.7544253691512 119.91201618180378 L674.1202855363813 122.05976979210101 L675.4861457036113 124.23122931914531 L676.8520058708414 126.4261861653564 L678.2178660380714 128.64441935523178 L679.5837262053014 130.88569554550622 L680.9495863725315 133.1497690460675 L682.3154465397615 135.43638185172546 L683.6813067069916 137.74526368490643 L685.0471668742215 140.07613204934069 L686.4130270414516 142.4286922947926 L687.7788872086816 144.8026376928674 L689.1447473759117 147.19764952392245 L690.5106075431416 149.61339717508616 L691.8764677103717 152.04953824938332 L693.2423278776017 154.5057186859438 L694.6081880448318 156.98157289126203 L695.9740482120618 159.47672388145662 L697.3399083792917 161.9907834354678 L698.7057685465219 164.52335225911423 L700.0716287137518 167.0740201599142 L701.437488880982 169.64236623256835 L702.8033490482119 172.22795905497543 L704.1692092154419 174.83035689465095 L705.535069382672 177.44910792539395 L706.900929549902 180.08375045403704 L708.266789717132 182.73381315710327 L709.6326498843621 185.3988153271731 L710.9985100515921 188.07826712875828 L712.3643702188222 190.77166986345838 L713.7302303860521 193.47851624417189 L715.0960905532822 196.1982906781103 L716.4619507205122 198.93046955835814 L717.8278108877423 201.6745215637111 L719.1936710549722 204.4299079665018 L720.5595312222024 207.1960829481264 L721.9253913894323 209.97249392195886 L723.2912515566625 212.75858186334273 L724.6571117238924 215.55378164632629 L726.0229718911224 218.3575223868118 L727.3888320583525 221.16922779176542 L728.7546922255825 223.98831651413553 L730.1205523928126 226.81420251311835 L731.4864125600426 229.6462954193915 L732.8522727272726 232.48400090494653 L732.8522727272726 501.0 L731.4864125600426 501.0 L730.1205523928126 501.0 L728.7546922255825 501.0 L727.3888320583525 501.0 L726.0229718911224 501.0 L724.6571117238924 501.0 L723.2912515566625 501.0 L721.9253913894323 501.0 L720.5595312222024 501.0 L719.1936710549722 501.0 L717.8278108877423 501.0 L716.4619507205122 501.0 L715.0960905532822 501.0 L713.7302303860521 501.0 L712.3643702188222 501.0 L710.9985100515921 501.0 L709.6326498843621 501.0 L708.266789717132 501.0 L706.900929549902 501.0 L705.535069382672 501.0 L704.1692092154419 501.0 L702.8033490482119 501.0 L701.437488880982 501.0 L700.0716287137518 501.0 L698.7057685465219 501.0 L697.3399083792917 501.0 L695.9740482120618 501.0 L694.6081880448318 501.0 L693.2423278776017 501.0 L691.8764677103717 501.0 L690.5106075431416 501.0 L689.1447473759117 501.0 L687.7788872086816 501.0 L686.4130270414516 501.0 L685.0471668742215 501.0 L683.6813067069916 501.0 L682.3154465397615 501.0 L680.9495863725315 501.0 L679.5837262053014 501.0 L678.2178660380714 501.0 L676.8520058708414 501.0 L675.4861457036113 501.0 L674.1202855363813 501.0 L672.7544253691512 501.0 L671.3885652019212 501.0 L670.0227050346913 501.0 L668.6568448674611 501.0 L667.2909847002312 501.0 L665.925124533001 501.0 L664.5592643657711 501.0 L663.193404198541 501.0 L661.827544031311 501.0 L660.461683864081 501.0 L659.095823696851 501.0 L657.7299635296209 501.0 L656.3641033623909 501.0 L654.9982431951609 501.0 L653.6323830279308 501.0 L652.2665228607008 501.0 L650.9006626934708 501.0 L649.5348025262407 501.0 L648.1689423590108 501.0 L646.8030821917807 501.0 L645.4372220245507 501.0 L644.0713618573207 501.0 L642.7055016900906 501.0 L641.3396415228607 501.0 L639.9737813556305 501.0 L638.6079211884006 501.0 L637.2420610211705 501.0 L635.8762008539405 501.0 L634.5103406867104 501.0 L633.1444805194805 501.0 L631.7786203522503 501.0 L630.4127601850204 501.0 L629.0469000177903 501.0 L627.6810398505603 501.0 L626.3151796833303 501.0 L624.9493195161002 501.0 L623.5834593488702 501.0 L622.2175991816401 501.0 L620.8517390144101 501.0 L619.4858788471802 501.0 L618.12001867995 501.0 L616.7541585127201 501.0 L615.3882983454899 501.0 L614.02243817826 501.0 L612.6565780110299 501.0 L611.2907178437999 501.0 L609.9248576765699 501.0 L608.5589975093399 501.0 L607.1931373421098 501.0 L605.8272771748798 501.0 L604.4614170076497 501.0 L603.0955568404197 501.0 L601.7296966731897 501.0 L600.3638365059597 501.0 L598.9979763387297 501.0 L597.6321161714997 501.0 L596.2662560042696 501.0 L594.9003958370396 501.0 L593.5345356698095 501.0 L592.1686755025795 501.0 L590.8028153353495 501.0 L589.4369551681194 501.0 L588.0710950008895 501.0 L586.7052348336593 501.0 L585.3393746664294 501.0 L583.9735144991993 501.0 L582.6076543319693 501.0 L581.2417941647392 501.0 L579.8759339975093 501.0 L578.5100738302792 501.0 L577.1442136630492 501.0 L575.7783534958191 501.0 L574.4124933285891 501.0 L573.0466331613591 501.0 L571.680772994129 501.0 L570.314912826899 501.0 L568.9490526596691 501.0 L567.5831924924389 501.0 L566.217332325209 501.0 L564.8514721579788 501.0 L563.4856119907489 501.0 L562.1197518235188 501.0 L560.7538916562888 501.0 L559.3880314890587 501.0 L558.0221713218288 501.0 L556.6563111545987 501.0 L555.2904509873687 501.0 L553.9245908201386 501.0 L552.5587306529086 501.0 L551.1928704856787 501.0 L549.8270103184485 501.0 L548.4611501512186 501.0 L547.0952899839886 501.0 L545.7294298167585 501.0 L544.3635696495285 501.0 L542.9977094822984 501.0 L541.6318493150684 501.0 L540.2659891478384 501.0 L538.9001289806083 501.0 L537.5342688133784 501.0 L536.1684086461482 501.0 L534.8025484789183 501.0 L533.4366883116882 501.0 L532.0708281444582 501.0 L530.7049679772282 501.0 L529.3391078099982 501.0 L527.9732476427681 501.0 L526.6073874755381 501.0 L525.2415273083082 501.0 L523.875667141078 501.0 L522.5098069738481 501.0 L521.1439468066179 501.0 L519.778086639388 501.0 L518.4122264721578 501.0 L517.0463663049279 501.0 L515.6805061376979 501.0 L514.3146459704678 501.0 L512.9487858032378 501.0 L511.5829256360077 501.0 L510.2170654687777 501.0 L508.8512053015476 501.0 L507.48534513431764 501.0 L506.11948496708766 501.0 L504.75362479985756 501.0 L503.3877646326276 501.0 L502.0219044653975 501.0 L500.6560442981675 501.0 L499.2901841309374 501.0 L497.9243239637074 501.0 L496.55846379647744 501.0 L495.19260362924734 501.0 L493.82674346201736 501.0 L492.4608832947873 501.0 L491.0950231275573 501.0 L489.72916296032724 501.0 L488.3633027930972 501.0 L486.99744262586717 501.0 L485.6315824586371 501.0 L484.2657222914071 501.0 L482.8998621241771 501.0 L481.53400195694707 501.0 L480.1681417897171 501.0 L478.80228162248704 501.0 L477.436421455257 501.0 L476.07056128802697 501.0 L474.7047011207969 501.0 L473.3388409535669 501.0 L471.9729807863369 501.0 L470.60712061910687 501.0 L469.2412604518768 501.0 L467.8754002846468 501.0 L466.50954011741675 501.0 L465.1436799501867 501.0 L463.77781978295667 501.0 L462.41195961572663 501.0 L461.04609944849665 501.0 L459.6802392812666 501.0 L458.31437911403657 501.0 L456.94851894680653 501.0 L455.5826587795765 501.0 L454.21679861234645 501.0 L452.8509384451164 501.0 L451.4850782778864 501.0 L450.1192181106564 501.0 L448.75335794342635 501.0 L447.3874977761963 501.0 L446.0216376089663 501.0 L444.65577744173623 501.0 L443.2899172745062 501.0 L441.92405710727616 501.0 L440.5581969400462 501.0 L439.19233677281613 501.0 L437.8264766055861 501.0 L436.46061643835606 501.0 L435.0947562711261 501.0 L433.72889610389603 501.0 L432.363035936666 501.0 L430.99717576943596 501.0 L429.631315602206 501.0 L428.26545543497593 501.0 L426.8995952677459 501.0 L425.53373510051586 501.0 L424.1678749332858 501.0 L422.8020147660558 501.0 L421.43615459882574 501.0 L420.07029443159576 501.0 L418.7044342643657 501.0 L417.3385740971357 501.0 L415.97271392990564 501.0 L414.6068537626756 501.0 L413.24099359544556 501.0 L411.8751334282155 501.0 L410.5092732609855 501.0 L409.1434130937555 501.0 L407.77755292652546 501.0 L406.4116927592954 501.0 L405.0458325920654 501.0 L403.67997242483534 501.0 L402.3141122576053 501.0 L400.94825209037526 501.0 L399.5823919231453 501.0 L398.21653175591524 501.0 L396.8506715886852 501.0 L395.48481142145516 501.0 L394.1189512542251 501.0 L392.7530910869951 501.0 L391.38723091976505 501.0 L390.02137075253506 501.0 L388.655510585305 501.0 L387.289650418075 501.0 L385.923790250845 501.0 L384.55793008361496 501.0 L383.1920699163849 501.0 L381.8262097491549 501.0 L380.46034958192485 501.0 L379.09448941469486 501.0 L377.7286292474648 501.0 L376.3627690802348 501.0 L374.99690891300475 501.0 L373.6310487457747 501.0 L372.26518857854467 501.0 L370.8993284113146 501.0 L369.5334682440846 501.0 L368.1676080768546 501.0 L366.80174790962457 501.0 L365.4358877423945 501.0 L364.0700275751645 501.0 L362.70416740793445 501.0 L361.3383072407044 501.0 L359.97244707347437 501.0 L358.6065869062444 501.0 L357.24072673901435 501.0 L355.8748665717843 501.0 L354.50900640455427 501.0 L353.14314623732423 501.0 L351.7772860700942 501.0 L350.41142590286415 501.0 L349.0455657356341 501.0 L347.67970556840413 501.0 L346.3138454011741 501.0 L344.94798523394405 501.0 L343.582125066714 501.0 L342.216264899484 501.0 L340.850404732254 501.0 L339.48454456502395 501.0 L338.11868439779397 501.0 L336.75282423056393 501.0 L335.3869640633339 501.0 L334.02110389610385 501.0 L332.6552437288738 501.0 L331.2893835616438 501.0 L329.92352339441373 501.0 L328.5576632271837 501.0 L327.1918030599537 501.0 L325.8259428927237 501.0 L324.46008272549363 501.0 L323.0942225582636 501.0 L321.72836239103356 501.0 L320.3625022238035 501.0 L318.9966420565735 501.0 L317.6307818893435 501.0 L316.26492172211346 501.0 L314.8990615548834 501.0 L313.5332013876534 501.0 L312.16734122042334 501.0 L310.8014810531933 501.0 L309.43562088596326 501.0 L308.0697607187332 501.0 L306.70390055150324 501.0 L305.3380403842732 501.0 L303.97218021704316 501.0 L302.6063200498131 501.0 L301.2404598825831 501.0 L299.87459971535304 501.0 L298.508739548123 501.0 L297.14287938089296 501.0 L295.777019213663 501.0 L294.41115904643294 501.0 L293.04529887920296 501.0 L291.6794387119729 501.0 L290.3135785447429 501.0 L288.94771837751284 501.0 L287.5818582102828 501.0 L286.2159980430528 501.0 L284.8501378758228 501.0 L283.48427770859274 501.0 L282.1184175413627 501.0 L280.75255737413266 501.0 L279.3866972069026 501.0 L278.0208370396726 501.0 L276.65497687244255 501.0 L275.28911670521256 501.0 L273.9232565379825 501.0 L272.5573963707525 501.0 L271.19153620352245 501.0 L269.8256760362924 501.0 L268.45981586906237 501.0 L267.09395570183233 501.0 L265.72809553460235 501.0 L264.3622353673723 501.0 L262.99637520014227 501.0 L261.63051503291223 501.0 L260.2646548656822 501.0 L258.8987946984522 501.0 L257.53293453122217 501.0 L256.1670743639921 501.0 L254.80121419676212 501.0 L253.4353540295321 501.0 L252.06949386230207 501.0 L250.70363369507203 501.0 L249.337773527842 501.0 L247.97191336061198 501.0 L246.60605319338194 501.0 L245.2401930261519 501.0 L243.87433285892186 501.0 L242.50847269169185 501.0 L241.1426125244618 501.0 L239.77675235723177 501.0 L238.41089219000173 501.0 L237.04503202277172 501.0 L235.67917185554168 501.0 L234.31331168831167 501.0 L232.94745152108163 501.0 L231.58159135385162 501.0 L230.21573118662158 501.0 L228.84987101939154 501.0 L227.48401085216153 501.0 L226.1181506849315 501.0 L224.75229051770145 501.0 L223.38643035047141 501.0 L222.0205701832414 501.0 L220.65471001601136 501.0 L219.28884984878133 501.0 L217.9229896815513 501.0 L216.55712951432128 501.0 L215.19126934709124 501.0 L213.8254091798612 501.0 L212.4595490126312 501.0 L211.09368884540115 501.0 L209.72782867817114 501.0 L208.3619685109411 501.0 L206.9961083437111 501.0 L205.63024817648105 501.0 L204.264388009251 501.0 L202.89852784202097 501.0 L201.53266767479096 501.0 L200.16680750756092 501.0 L198.80094734033088 501.0 L197.43508717310084 501.0 L196.06922700587083 501.0 L194.7033668386408 501.0 L193.33750667141075 501.0 L191.9716465041807 501.0 L190.6057863369507 501.0 L189.23992616972066 501.0 L187.87406600249065 501.0 L186.50820583526064 501.0 L185.1423456680306 501.0 L183.77648550080056 501.0 L182.41062533357052 501.0 L181.0447651663405 501.0 L179.67890499911047 501.0 L178.31304483188043 501.0 L176.9471846646504 501.0 L175.58132449742038 501.0 L174.21546433019034 501.0 L172.8496041629603 501.0 L171.48374399573026 501.0 L170.11788382850025 501.0 L168.75202366127021 501.0 L167.38616349404018 501.0 L166.02030332681014 501.0 L164.65444315958013 501.0 L163.28858299235011 501.0 L161.92272282512005 501.0 L160.55686265789004 501.0 L159.19100249066 501.0 L157.82514232343 501.0 L156.45928215619995 501.0 L155.09342198896994 501.0 L153.7275618217399 501.0 L152.36170165450986 501.0 L150.99584148727982 501.0 L149.6299813200498 501.0 L148.26412115281977 501.0 L146.89826098558973 501.0 L145.53240081835972 501.0 L144.16654065112968 501.0 L142.80068048389964 501.0 L141.43482031666963 501.0 L140.0689601494396 501.0 L138.70309998220955 501.0 L137.3372398149795 501.0 L135.9713796477495 501.0 L134.60551948051946 501.0 L133.23965931328945 501.0 L131.8737991460594 501.0 L130.50793897882937 501.0 L129.14207881159933 501.0 L127.77621864436932 501.0 L126.41035847713928 501.0 L125.04449830990924 501.0 L123.67863814267923 501.0 L122.3127779754492 501.0 L120.94691780821918 501.0 L119.58105764098914 501.0 L118.2151974737591 501.0 L116.84933730652907 501.0 L115.48347713929905 501.0 L114.11761697206902 501.0 L112.75175680483898 501.0 L111.38589663760897 501.0 L110.02003647037893 501.0 L108.65417630314889 501.0 L107.28831613591888 501.0 L105.92245596868884 501.0 L104.5565958014588 501.0 L103.19073563422876 501.0 L101.82487546699875 501.0 L100.45901529976871 501.0 L99.0931551325387 501.0 L97.72729496530866 501.0 L96.36143479807862 501.0 L94.99557463084861 501.0 L93.62971446361857 501.0 L92.26385429638853 501.0 L90.8979941291585 501.0 L89.53213396192848 501.0 L88.16627379469844 501.0 L86.80041362746842 501.0 L85.43455346023839 501.0 L84.06869329300835 501.0 L82.70283312577833 501.0 L81.3369729585483 501.0 L79.97111279131826 501.0 L78.60525262408824 501.0 L77.23939245685821 501.0 L75.87353228962817 501.0 L74.50767212239813 501.0 L73.14181195516812 501.0 L71.77595178793808 501.0 L70.41009162070804 501.0 L69.04423145347802 501.0 L67.678371286248 501.0 L66.31251111901797 501.0 L64.94665095178794 501.0 L63.580790784557905 501.0 L62.21493061732788 501.0 L60.84907045009784 501.0 L59.483210282867816 501.0 L58.117350115637784 501.0 L56.75148994840775 501.0 L55.38562978117773 501.0 L54.019769613947695 501.0 L52.65390944671766 501.0 L51.28804927948763 501.0 L49.922189112257605 501.0 L48.55632894502757 501.0 L47.19046877779755 501.0 L45.824608610567516 501.0 L44.458748443337484 501.0 L43.09288827610745 501.0 L41.72702810887743 501.0 L40.361167941647395 501.0 L38.99530777441736 501.0 L37.62944760718733 501.0 L36.263587439957305 501.0 L34.89772727272727 501.0 Z" fill="rgb(0,0,0)" stroke-width="1.0" fill-opacity="0.0">
          </path>
        </g>
        <g>
          <path d="M34.89772727272727 232.48400090494658 L34.89772727272727 232.48400090494658 L36.263587439957305 229.6462954193915 L37.62944760718733 226.8142025131183 L38.99530777441736 223.9883165141357 L40.361167941647395 221.1692277917656 L41.72702810887743 218.35752238681204 L43.09288827610745 215.55378164632646 L44.458748443337484 212.75858186334278 L45.824608610567516 209.9724939219592 L47.19046877779755 207.1960829481265 L48.55632894502757 204.42990796650196 L49.922189112257605 201.67452156371127 L51.28804927948763 198.93046955835837 L52.65390944671766 196.19829067811037 L54.019769613947695 193.47851624417206 L55.38562978117773 190.7716698634586 L56.75148994840775 188.07826712875834 L58.117350115637784 185.39881532717334 L59.483210282867816 182.73381315710338 L60.84907045009784 180.08375045403722 L62.21493061732788 177.449107925394 L63.580790784557905 174.83035689465123 L64.94665095178794 172.22795905497554 L66.31251111901797 169.6423662325684 L67.678371286248 167.07402015991426 L69.04423145347802 164.52335225911423 L70.41009162070804 161.9907834354679 L71.77595178793808 159.4767238814568 L73.14181195516812 156.9815728912622 L74.50767212239813 154.50571868594398 L75.87353228962817 152.0495382493835 L77.23939245685821 149.61339717508616 L78.60525262408824 147.1976495239224 L79.97111279131826 144.80263769286762 L81.3369729585483 142.42869229479277 L82.70283312577833 140.07613204934103 L84.06869329300835 137.74526368490655 L85.43455346023839 135.43638185172546 L86.80041362746842 133.14976904606777 L88.16627379469844 130.88569554550622 L89.53213396192848 128.6444193552319 L90.8979941291585 126.42618616535657 L92.26385429638853 124.23122931914554 L93.62971446361857 122.05976979210101 L94.99557463084861 119.912016181804 L96.36143479807862 117.7881647084132 L97.72729496530866 115.68839922570675 L99.0931551325387 113.61289124253375 L100.45901529976871 111.56179995454266 L101.82487546699875 109.53527228602854 L103.19073563422876 107.5334429417411 L104.5565958014588 105.55643446847876 L105.92245596868884 103.60435732628406 L107.28831613591888 101.67730996904726 L108.65417630314889 99.77537893431725 L110.02003647037893 97.89863894210094 L111.38589663760897 96.04715300243629 L112.75175680483898 94.22097253150639 L114.11761697206902 92.42013747605574 L115.48347713929905 90.64467644586722 L116.84933730652907 88.89460685404453 L118.2151974737591 87.16993506484272 L119.58105764098914 85.47065654878571 L120.94691780821918 83.79675604479479 L122.3127779754492 82.14820772905824 L123.67863814267923 80.52497539036159 L125.04449830990924 78.92701261159243 L126.41035847713928 77.35426295713626 L127.77621864436932 75.80666016587179 L129.14207881159933 74.28412834947045 L130.50793897882937 72.78658219571065 L131.8737991460594 71.31392717650357 L133.23965931328945 69.86605976033923 L134.60551948051946 68.44286762884786 L135.9713796477495 67.04422989718364 L137.3372398149795 65.67001733792733 L138.70309998220955 64.32009260821212 L140.0689601494396 62.994310479777084 L141.43482031666963 61.692518071647555 L142.80068048389964 60.4145550851548 L144.16654065112968 59.16025404099952 L145.53240081835972 57.929440518071374 L146.89826098558973 56.72193339373894 L148.26412115281977 55.53754508532927 L149.6299813200498 54.376081792515436 L150.99584148727982 53.23734374033995 L152.36170165450986 52.12112542260411 L153.7275618217399 51.02721584535641 L155.09342198896994 49.955398770220995 L156.45928215619995 48.90545295731272 L157.82514232343 47.877152407485994 L159.19100249066 46.87026660367826 L160.55686265789004 45.884560751107074 L161.92272282512005 44.9197960160937 L163.28858299235011 43.97572976328587 L164.65444315958013 43.052115791063045 L166.02030332681014 42.14870456491644 L167.38616349404018 41.26524344859331 L168.75202366127021 40.401476932818696 L170.11788382850025 39.55714686139652 L171.48374399573026 38.73199265451643 L172.8496041629603 37.92575152908569 L174.21546433019034 37.13815871592698 L175.58132449742038 36.368947673677326 L176.9471846646504 35.61785029924101 L178.31304483188043 34.884597134655166 L179.67890499911047 34.16891757022984 L181.0447651663405 33.47054004383642 L182.41062533357052 32.78919223622876 L183.77648550080056 32.12460126228149 L185.1423456680306 31.476493858044137 L186.50820583526064 30.844596563517825 L187.87406600249065 30.228635901062773 L189.23992616972066 29.628338549359967 L190.6057863369507 29.043431512853488 L191.9716465041807 28.473642286608026 L193.33750667141075 27.918699016527796 L194.7033668386408 27.378330654881836 L196.06922700587083 26.852267111096978 L197.43508717310084 26.340239397781772 L198.80094734033088 25.841979771952026 L200.16680750756092 25.357221871438696 L201.53266767479096 24.885700846459486 L202.89852784202097 24.427153486349653 L204.264388009251 23.98131834144567 L205.63024817648105 23.54793584013032 L206.9961083437111 23.126748401046598 L208.3619685109411 22.71750054049494 L209.72782867817114 22.31993897504202 L211.09368884540115 21.93381271935823 L212.4595490126312 21.55887317932644 L213.8254091798612 21.194874240450872 L215.19126934709124 20.84157235161456 L216.55712951432128 20.498726604230512 L217.9229896815513 20.166098806833872 L219.28884984878133 19.843453555180133 L220.65471001601136 19.530558297899745 L222.0205701832414 19.227183397775434 L223.38643035047141 18.933102188716077 L224.75229051770145 18.64809102848693 L226.1181506849315 18.371929347278353 L227.48401085216153 18.10439969218578 L228.84987101939154 17.84528776768383 L230.21573118662158 17.594382472173606 L231.58159135385162 17.35147593069047 L232.94745152108163 17.11636352385574 L234.31331168831167 16.88884391316907 L235.67917185554168 16.6687190627203 L237.04503202277172 16.455794257424998 L238.41089219000173 16.24987811786923 L239.77675235723177 16.050782611863156 L241.1426125244618 15.85832306279758 L242.50847269169185 15.672318154901234 L243.87433285892186 15.492589935494834 L245.2401930261519 15.318963814345636 L246.60605319338194 15.151268560211122 L247.97191336061198 14.989336294681948 L249.337773527842 14.833002483416351 L250.70363369507203 14.68210592486514 L252.06949386230207 14.536488736590286 L253.4353540295321 14.395996339269004 L254.80121419676212 14.260477438490398 L256.1670743639921 14.129784004429155 L257.53293453122217 14.003771249506713 L258.8987946984522 13.882297604126393 L260.2646548656822 13.765224690579657 L261.63051503291223 13.652417295218186 L262.99637520014227 13.543743338985223 L264.3622353673723 13.439073846392944 L265.72809553460235 13.338282913043258 L267.09395570183233 13.241247671772157 L268.45981586906237 13.147848257513203 L269.8256760362924 13.057967770958385 L271.19153620352245 12.971492241106091 L272.5573963707525 12.888310586774196 L273.9232565379825 12.808314577161639 L275.28911670521256 12.73139879153581 L276.65497687244255 12.65746057812271 L278.0208370396726 12.58640001227701 L279.3866972069026 12.518119854000872 L280.75255737413266 12.452525504888115 L282.1184175413627 12.38952496455687 L283.48427770859274 12.329028786646063 L284.8501378758228 12.270950034430882 L286.2159980430528 12.21520423613157 L287.5818582102828 12.161709339965569 L288.94771837751284 12.110385669012487 L290.3135785447429 12.061155875941552 L291.6794387119729 12.013944897661702 L293.04529887920296 11.968679909943091 L294.41115904643294 11.925290282065362 L295.777019213663 11.883707531539528 L297.14287938089296 11.843865278950034 L298.508739548123 11.805699202967276 L299.87459971535304 11.76914699556147 L301.2404598825831 11.734148317478912 L302.6063200498131 11.700644753999995 L303.97218021704316 11.668579771028817 L305.3380403842732 11.637898671547191 L306.70390055150324 11.60854855246805 L308.0697607187332 11.580478261915232 L309.43562088596326 11.553638356968179 L310.8014810531933 11.52798106189681 L312.16734122042334 11.503460226907805 L313.5332013876534 11.480031287442785 L314.8990615548834 11.457651224033782 L316.26492172211346 11.436278522756652 L317.6307818893435 11.415873136287416 L318.9966420565735 11.39639644559577 L320.3625022238035 11.377811222280968 L321.72836239103356 11.360081591578194 L323.0942225582636 11.343172996042199 L324.46008272549363 11.327052159927575 L325.8259428927237 11.311687054281379 L327.1918030599537 11.29704686274954 L328.5576632271837 11.283101948123203 L329.92352339441373 11.269823819619944 L331.2893835616438 11.257185100921447 L332.6552437288738 11.2451594989667 L334.02110389610385 11.233721773513082 L335.3869640633339 11.222847707467906 L336.75282423056393 11.212514078000368 L338.11868439779397 11.202698628434064 L339.48454456502395 11.193380040927025 L340.850404732254 11.184537909940559 L342.216264899484 11.176152716502202 L343.582125066714 11.168205803261799 L344.94798523394405 11.160679350345163 L346.3138454011741 11.153556352003704 L347.67970556840413 11.146820594063797 L349.0455657356341 11.140456632171151 L350.41142590286415 11.134449770837477 L351.7772860700942 11.1287860432804 L353.14314623732423 11.123452192062928 L354.50900640455427 11.118435650526294 L355.8748665717843 11.113724525018654 L357.24072673901435 11.109307577915445 L358.6065869062444 11.105174211430779 L359.97244707347437 11.101314452217537 L361.3383072407044 11.097718936756792 L362.70416740793445 11.094378897528088 L364.0700275751645 11.091286149967402 L365.4358877423945 11.088433080202662 L366.80174790962457 11.085812633570413 L368.1676080768546 11.083418303906399 L369.5334682440846 11.081244123614226 L370.8993284113146 11.07928465450317 L372.26518857854467 11.077534979400411 L373.6310487457747 11.075990694528343 L374.99690891300475 11.074647902652941 L376.3627690802348 11.073503206993848 L377.7286292474648 11.072553705902465 L379.09448941469486 11.071796988300889 L380.46034958192485 11.071231129882221 L381.8262097491549 11.070854690074157 L383.1920699163849 11.070666709759394 L384.55793008361496 11.07066670975945 L385.923790250845 11.070854690074157 L387.289650418075 11.071231129882449 L388.655510585305 11.07179698830123 L390.02137075253506 11.072553705902465 L391.38723091976505 11.073503206993621 L392.7530910869951 11.074647902652828 L394.1189512542251 11.075990694528514 L395.48481142145516 11.077534979400298 L396.8506715886852 11.07928465450317 L398.21653175591524 11.081244123614056 L399.5823919231453 11.083418303906399 L400.94825209037526 11.085812633570413 L402.3141122576053 11.088433080202833 L403.67997242483534 11.091286149967402 L405.0458325920654 11.094378897528088 L406.4116927592954 11.097718936756621 L407.77755292652546 11.101314452217537 L409.1434130937555 11.105174211430608 L410.5092732609855 11.109307577915274 L411.8751334282155 11.113724525018824 L413.24099359544556 11.118435650526237 L414.6068537626756 11.123452192062757 L415.97271392990564 11.12878604328057 L417.3385740971357 11.134449770837534 L418.7044342643657 11.140456632171038 L420.07029443159576 11.146820594063627 L421.43615459882574 11.153556352003818 L422.8020147660558 11.160679350344992 L424.1678749332858 11.168205803261628 L425.53373510051586 11.176152716502202 L426.8995952677459 11.184537909940559 L428.26545543497593 11.193380040926911 L429.631315602206 11.202698628434291 L430.99717576943596 11.212514078000197 L432.363035936666 11.222847707467906 L433.72889610389603 11.233721773513082 L435.0947562711261 11.245159498967041 L436.46061643835606 11.257185100921447 L437.8264766055861 11.269823819620115 L439.19233677281613 11.28310194812326 L440.5581969400462 11.29704686274954 L441.92405710727616 11.311687054281265 L443.2899172745062 11.327052159927746 L444.65577744173623 11.343172996042028 L446.0216376089663 11.360081591578364 L447.3874977761963 11.377811222280968 L448.75335794342635 11.396396445595656 L450.1192181106564 11.415873136287416 L451.4850782778864 11.436278522756538 L452.8509384451164 11.457651224034066 L454.21679861234645 11.480031287442898 L455.5826587795765 11.503460226907919 L456.94851894680653 11.527981061896526 L458.31437911403657 11.55363835696852 L459.6802392812666 11.580478261915061 L461.04609944849665 11.60854855246788 L462.41195961572663 11.637898671547191 L463.77781978295667 11.668579771028703 L465.1436799501867 11.700644753999995 L466.50954011741675 11.734148317479253 L467.8754002846468 11.769146995561641 L469.2412604518768 11.805699202966935 L470.60712061910687 11.843865278950318 L471.9729807863369 11.883707531539415 L473.3388409535669 11.925290282065419 L474.7047011207969 11.968679909943262 L476.07056128802697 12.013944897661986 L477.436421455257 12.061155875941836 L478.80228162248704 12.110385669012487 L480.1681417897171 12.161709339965569 L481.53400195694707 12.215204236131513 L482.8998621241771 12.270950034430939 L484.2657222914071 12.329028786645779 L485.6315824586371 12.38952496455687 L486.99744262586717 12.452525504888115 L488.3633027930972 12.518119854000929 L489.72916296032724 12.586400012276897 L491.0950231275573 12.657460578122652 L492.4608832947873 12.73139879153564 L493.82674346201736 12.808314577161696 L495.19260362924734 12.88831058677431 L496.55846379647744 12.971492241106091 L497.9243239637074 13.057967770958442 L499.2901841309374 13.14784825751309 L500.6560442981675 13.241247671772214 L502.0219044653975 13.338282913043258 L503.3877646326276 13.439073846392944 L504.75362479985756 13.543743338985223 L506.11948496708766 13.652417295218129 L507.48534513431764 13.76522469057943 L508.8512053015476 13.882297604126279 L510.2170654687777 14.00377124950677 L511.5829256360077 14.129784004429041 L512.9487858032378 14.260477438490398 L514.3146459704678 14.395996339269175 L515.6805061376979 14.536488736590115 L517.0463663049279 14.68210592486514 L518.4122264721578 14.833002483416351 L519.778086639388 14.989336294682005 L521.1439468066179 15.151268560211179 L522.5098069738481 15.31896381434558 L523.875667141078 15.492589935495118 L525.2415273083082 15.672318154901063 L526.6073874755381 15.85832306279758 L527.9732476427681 16.050782611863212 L529.3391078099982 16.249878117869287 L530.7049679772282 16.455794257425055 L532.0708281444582 16.668719062720413 L533.4366883116882 16.888843913169012 L534.8025484789183 17.11636352385574 L536.1684086461482 17.3514759306903 L537.5342688133784 17.594382472173834 L538.9001289806083 17.845287767683885 L540.2659891478384 18.104399692185666 L541.6318493150684 18.37192934727824 L542.9977094822984 18.648091028487045 L544.3635696495285 18.933102188716077 L545.7294298167585 19.227183397775377 L547.0952899839886 19.53055829789946 L548.4611501512186 19.843453555180133 L549.8270103184485 20.166098806833872 L551.1928704856787 20.498726604230455 L552.5587306529086 20.841572351614616 L553.9245908201386 21.194874240450872 L555.2904509873687 21.55887317932644 L556.6563111545987 21.9338127193584 L558.0221713218288 22.31993897504185 L559.3880314890587 22.71750054049477 L560.7538916562888 23.12674840104654 L562.1197518235188 23.54793584013055 L563.4856119907489 23.981318341445785 L564.8514721579788 24.427153486349653 L566.217332325209 24.885700846459656 L567.5831924924389 25.357221871438526 L568.9490526596691 25.841979771951856 L570.314912826899 26.340239397781602 L571.680772994129 26.852267111096978 L573.0466331613591 27.378330654881836 L574.4124933285891 27.918699016527796 L575.7783534958191 28.473642286607856 L577.1442136630492 29.04343151285343 L578.5100738302792 29.628338549360024 L579.8759339975093 30.228635901062773 L581.2417941647392 30.84459656351771 L582.6076543319693 31.476493858044023 L583.9735144991993 32.124601262281374 L585.3393746664294 32.78919223622876 L586.7052348336593 33.47054004383642 L588.0710950008895 34.16891757022984 L589.4369551681194 34.884597134655166 L590.8028153353495 35.61785029924073 L592.1686755025795 36.3689476736771 L593.5345356698095 37.13815871592698 L594.9003958370396 37.92575152908569 L596.2662560042696 38.731992654516375 L597.6321161714997 39.55714686139652 L598.9979763387297 40.401476932818525 L600.3638365059597 41.26524344859348 L601.7296966731897 42.14870456491644 L603.0955568404197 43.052115791063045 L604.4614170076497 43.9757297632857 L605.8272771748798 44.91979601609353 L607.1931373421098 45.884560751107074 L608.5589975093399 46.87026660367815 L609.9248576765699 47.877152407485994 L611.2907178437999 48.905452957312605 L612.6565780110299 49.95539877022088 L614.02243817826 51.02721584535624 L615.3882983454899 52.121125422603996 L616.7541585127201 53.237343740339895 L618.12001867995 54.376081792515265 L619.4858788471802 55.53754508532916 L620.8517390144101 56.721933393738766 L622.2175991816401 57.92944051807115 L623.5834593488702 59.16025404099963 L624.9493195161002 60.414555085154745 L626.3151796833303 61.6925180716475 L627.6810398505603 62.99431047977697 L629.0469000177903 64.32009260821212 L630.4127601850204 65.67001733792722 L631.7786203522503 67.0442298971837 L633.1444805194805 68.44286762884792 L634.5103406867104 69.86605976033906 L635.8762008539405 71.31392717650357 L637.2420610211705 72.78658219571048 L638.6079211884006 74.28412834947045 L639.9737813556305 75.80666016587168 L641.3396415228607 77.35426295713643 L642.7055016900906 78.92701261159237 L644.0713618573207 80.52497539036159 L645.4372220245507 82.14820772905824 L646.8030821917807 83.7967560447945 L648.1689423590108 85.47065654878566 L649.5348025262407 87.1699350648426 L650.9006626934708 88.89460685404447 L652.2665228607008 90.64467644586722 L653.6323830279308 92.42013747605574 L654.9982431951609 94.22097253150633 L656.3641033623909 96.04715300243612 L657.7299635296209 97.89863894210077 L659.095823696851 99.77537893431719 L660.461683864081 101.67730996904726 L661.827544031311 103.60435732628389 L663.193404198541 105.55643446847859 L664.5592643657711 107.53344294174104 L665.925124533001 109.53527228602837 L667.2909847002312 111.56179995454255 L668.6568448674611 113.61289124253358 L670.0227050346913 115.68839922570658 L671.3885652019212 117.78816470841315 L672.7544253691512 119.91201618180378 L674.1202855363813 122.05976979210101 L675.4861457036113 124.23122931914531 L676.8520058708414 126.4261861653564 L678.2178660380714 128.64441935523178 L679.5837262053014 130.88569554550622 L680.9495863725315 133.1497690460675 L682.3154465397615 135.43638185172546 L683.6813067069916 137.74526368490643 L685.0471668742215 140.07613204934069 L686.4130270414516 142.4286922947926 L687.7788872086816 144.8026376928674 L689.1447473759117 147.19764952392245 L690.5106075431416 149.61339717508616 L691.8764677103717 152.04953824938332 L693.2423278776017 154.5057186859438 L694.6081880448318 156.98157289126203 L695.9740482120618 159.47672388145662 L697.3399083792917 161.9907834354678 L698.7057685465219 164.52335225911423 L700.0716287137518 167.0740201599142 L701.437488880982 169.64236623256835 L702.8033490482119 172.22795905497543 L704.1692092154419 174.83035689465095 L705.535069382672 177.44910792539395 L706.900929549902 180.08375045403704 L708.266789717132 182.73381315710327 L709.6326498843621 185.3988153271731 L710.9985100515921 188.07826712875828 L712.3643702188222 190.77166986345838 L713.7302303860521 193.47851624417189 L715.0960905532822 196.1982906781103 L716.4619507205122 198.93046955835814 L717.8278108877423 201.6745215637111 L719.1936710549722 204.4299079665018 L720.5595312222024 207.1960829481264 L721.9253913894323 209.97249392195886 L723.2912515566625 212.75858186334273 L724.6571117238924 215.55378164632629 L726.0229718911224 218.3575223868118 L727.3888320583525 221.16922779176542 L728.7546922255825 223.98831651413553 L730.1205523928126 226.81420251311835 L731.4864125600426 229.6462954193915 L732.8522727272726 232.48400090494653 " fill="none" stroke-width="1.0" stroke="rgb(49,106,155)" stroke-opacity="1.0">
          </path>
        </g>
      </g>
    </g>
    <g class="plt-axis">
      <g transform="translate(4.0 260.5 ) rotate(-90.0 ) " class="plt-axis-title">
        <text text-anchor="middle" dy="0.7em">
        density
        </text>
      </g>
    </g>
    <g class="plt-axis">
      <g transform="translate(439.675 546.0 ) " class="plt-axis-title">
        <text text-anchor="middle">
        x
        </text>
      </g>
    </g>
    <g transform="translate(833.55 199.5 ) " class="plt_legend">
      <rect x="5.0" y="5.0" height="141.0" width="56.45" fill="rgb(255,255,255)" fill-opacity="1.0">
      </rect>
      <g transform="translate(10.0 10.0 ) ">
        <g class="legend-title" transform="translate(0.0 -4.0 ) ">
          <text dy="0.7em">
          y
          </text>
        </g>
        <g transform="translate(0.0 12.0 ) ">
          <g>
            <rect x="0.0" y="0.0" height="115.0" width="23.0" stroke-width="0.0" fill="rgb(20,45,70)" fill-opacity="1.0">
            </rect>
            <rect x="0.0" y="7.55" height="107.45" width="23.0" stroke-width="0.0" fill="rgb(23,51,79)" fill-opacity="1.0">
            </rect>
            <rect x="0.0" y="13.1" height="101.9" width="23.0" stroke-width="0.0" fill="rgb(26,57,88)" fill-opacity="1.0">
            </rect>
            <rect x="0.0" y="18.65" height="96.35" width="23.0" stroke-width="0.0" fill="rgb(29,64,97)" fill-opacity="1.0">
            </rect>
            <rect x="0.0" y="24.2" height="90.8" width="23.0" stroke-width="0.0" fill="rgb(32,70,106)" fill-opacity="1.0">
            </rect>
            <rect x="0.0" y="29.75" height="85.25" width="23.0" stroke-width="0.0" fill="rgb(35,76,115)" fill-opacity="1.0">
            </rect>
            <rect x="0.0" y="35.3" height="79.7" width="23.0" stroke-width="0.0" fill="rgb(38,83,124)" fill-opacity="1.0">
            </rect>
            <rect x="0.0" y="40.849999999999994" height="74.15" width="23.0" stroke-width="0.0" fill="rgb(41,89,133)" fill-opacity="1.0">
            </rect>
            <rect x="0.0" y="46.39999999999999" height="68.60000000000001" width="23.0" stroke-width="0.0" fill="rgb(44,96,142)" fill-opacity="1.0">
            </rect>
            <rect x="0.0" y="51.94999999999999" height="63.05000000000001" width="23.0" stroke-width="0.0" fill="rgb(48,102,151)" fill-opacity="1.0">
            </rect>
            <rect x="0.0" y="57.499999999999986" height="57.500000000000014" width="23.0" stroke-width="0.0" fill="rgb(51,109,160)" fill-opacity="1.0">
            </rect>
            <rect x="0.0" y="63.04999999999998" height="51.95000000000002" width="23.0" stroke-width="0.0" fill="rgb(54,116,168)" fill-opacity="1.0">
            </rect>
            <rect x="0.0" y="68.59999999999998" height="46.40000000000002" width="23.0" stroke-width="0.0" fill="rgb(58,122,177)" fill-opacity="1.0">
            </rect>
            <rect x="0.0" y="74.14999999999998" height="40.85000000000002" width="23.0" stroke-width="0.0" fill="rgb(61,129,186)" fill-opacity="1.0">
            </rect>
            <rect x="0.0" y="79.69999999999997" height="35.300000000000026" width="23.0" stroke-width="0.0" fill="rgb(65,136,195)" fill-opacity="1.0">
            </rect>
            <rect x="0.0" y="85.24999999999997" height="29.75000000000003" width="23.0" stroke-width="0.0" fill="rgb(68,143,204)" fill-opacity="1.0">
            </rect>
            <rect x="0.0" y="90.79999999999997" height="24.20000000000003" width="23.0" stroke-width="0.0" fill="rgb(72,150,213)" fill-opacity="1.0">
            </rect>
            <rect x="0.0" y="96.34999999999997" height="18.650000000000034" width="23.0" stroke-width="0.0" fill="rgb(76,157,222)" fill-opacity="1.0">
            </rect>
            <rect x="0.0" y="101.89999999999996" height="13.100000000000037" width="23.0" stroke-width="0.0" fill="rgb(79,164,231)" fill-opacity="1.0">
            </rect>
            <rect x="0.0" y="107.44999999999996" height="7.55000000000004" width="23.0" stroke-width="0.0" fill="rgb(83,172,240)" fill-opacity="1.0">
            </rect>
            <line x1="0.0" y1="13.099999999998602" x2="4.6" y2="13.099999999998602" stroke-width="1.0" stroke="rgb(255,255,255)" stroke-opacity="1.0">
            </line>
            <line x1="18.4" y1="13.099999999998602" x2="23.0" y2="13.099999999998602" stroke-width="1.0" stroke="rgb(255,255,255)" stroke-opacity="1.0">
            </line>
            <g transform="translate(26.35 13.099999999998602 ) ">
              <text dy="0.35em">
              1.6
              </text>
            </g>
            <line x1="0.0" y1="35.29999999999859" x2="4.6" y2="35.29999999999859" stroke-width="1.0" stroke="rgb(255,255,255)" stroke-opacity="1.0">
            </line>
            <line x1="18.4" y1="35.29999999999859" x2="23.0" y2="35.29999999999859" stroke-width="1.0" stroke="rgb(255,255,255)" stroke-opacity="1.0">
            </line>
            <g transform="translate(26.35 35.29999999999859 ) ">
              <text dy="0.35em">
              1.8
              </text>
            </g>
            <line x1="0.0" y1="57.49999999999858" x2="4.6" y2="57.49999999999858" stroke-width="1.0" stroke="rgb(255,255,255)" stroke-opacity="1.0">
            </line>
            <line x1="18.4" y1="57.49999999999858" x2="23.0" y2="57.49999999999858" stroke-width="1.0" stroke="rgb(255,255,255)" stroke-opacity="1.0">
            </line>
            <g transform="translate(26.35 57.49999999999858 ) ">
              <text dy="0.35em">
              2.0
              </text>
            </g>
            <line x1="0.0" y1="79.6999999999986" x2="4.6" y2="79.6999999999986" stroke-width="1.0" stroke="rgb(255,255,255)" stroke-opacity="1.0">
            </line>
            <line x1="18.4" y1="79.6999999999986" x2="23.0" y2="79.6999999999986" stroke-width="1.0" stroke="rgb(255,255,255)" stroke-opacity="1.0">
            </line>
            <g transform="translate(26.35 79.6999999999986 ) ">
              <text dy="0.35em">
              2.2
              </text>
            </g>
            <line x1="0.0" y1="101.89999999999861" x2="4.6" y2="101.89999999999861" stroke-width="1.0" stroke="rgb(255,255,255)" stroke-opacity="1.0">
            </line>
            <line x1="18.4" y1="101.89999999999861" x2="23.0" y2="101.89999999999861" stroke-width="1.0" stroke="rgb(255,255,255)" stroke-opacity="1.0">
            </line>
            <g transform="translate(26.35 101.89999999999861 ) ">
              <text dy="0.35em">
              2.4
              </text>
            </g>
            <rect x="0.0" y="0.0" height="115.0" width="23.0" stroke="rgb(255,255,255)" stroke-opacity="1.0" stroke-width="1.0" fill-opacity="0.0">
            </rect>
          </g>
        </g>
      </g>
    </g>
  </g>
</svg>